<?xml version="1.0" encoding="utf-8"?>
<!-- Generator: Adobe Illustrator 16.0.0, SVG Export Plug-In . SVG Version: 6.00 Build 0)  -->
<!DOCTYPE svg PUBLIC "-//W3C//DTD SVG 1.1//EN" "http://www.w3.org/Graphics/SVG/1.1/DTD/svg11.dtd">
<svg version="1.1" id="Capa_1" xmlns="http://www.w3.org/2000/svg" xmlns:xlink="http://www.w3.org/1999/xlink" x="0px" y="0px"
	 width="69.659px" height="35.5px" viewBox="0 0 69.659 35.5" enable-background="new 0 0 69.659 35.5" xml:space="preserve">
<g>
	<path fill="#FFFFFF" d="M40.983,24.719l-0.058-0.056c-0.433-0.433-0.635-0.924-0.635-1.529s0.202-1.096,0.635-1.499
		c0.434-0.404,0.922-0.636,1.529-0.636c0.086,0,0.172,0,0.26,0l0.95-2.048c-0.373-0.115-0.777-0.144-1.21-0.144
		c-1.211,0-2.251,0.403-3.087,1.241c-0.837,0.834-1.27,1.845-1.27,3.057c0,1.211,0.433,2.248,1.27,3.085
		c0.202,0.202,0.433,0.404,0.663,0.55L40.983,24.719L40.983,24.719z"/>
	<g>
		<path fill="#FFFFFF" d="M52.115,30.229v-1.414h0.75v1.414c0,0.174,0.059,0.289,0.145,0.375c0.087,0.087,0.23,0.116,0.376,0.116
			s0.26-0.059,0.376-0.145c0.113-0.087,0.144-0.259,0.144-0.492v-1.269h0.75v2.396h-0.75v-0.202
			c-0.087,0.087-0.203,0.145-0.318,0.202c-0.115,0.057-0.259,0.057-0.403,0.057C52.493,31.267,52.115,30.921,52.115,30.229
			L52.115,30.229z"/>
		<path fill="#FFFFFF" d="M57.654,29.048c0.173,0.172,0.259,0.431,0.259,0.748v1.414h-0.749v-1.414c0-0.317-0.175-0.491-0.521-0.491
			c-0.144,0-0.259,0.059-0.373,0.146c-0.116,0.087-0.174,0.26-0.146,0.49v1.27h-0.72v-2.396h0.72v0.204
			c0.088-0.088,0.203-0.145,0.349-0.204c0.144-0.058,0.258-0.058,0.401-0.058C57.221,28.757,57.48,28.845,57.654,29.048
			L57.654,29.048z"/>
		<path fill="#FFFFFF" d="M60.51,29.509c-0.144-0.117-0.318-0.204-0.549-0.204s-0.404,0.059-0.547,0.204
			c-0.145,0.115-0.202,0.287-0.202,0.489s0.058,0.347,0.202,0.49c0.143,0.115,0.316,0.202,0.547,0.202s0.405-0.059,0.549-0.173
			c0.144-0.115,0.202-0.289,0.202-0.491C60.712,29.825,60.654,29.652,60.51,29.509L60.51,29.509z M60.682,30.979
			c-0.057,0.086-0.172,0.146-0.315,0.202c-0.145,0.058-0.319,0.086-0.492,0.086c-0.287,0-0.519-0.057-0.721-0.172
			c-0.2-0.116-0.374-0.26-0.46-0.463c-0.116-0.201-0.176-0.403-0.176-0.634s0.06-0.433,0.176-0.635
			c0.114-0.202,0.26-0.345,0.46-0.461c0.202-0.116,0.461-0.174,0.721-0.174c0.173,0,0.348,0.028,0.492,0.086
			c0.144,0.06,0.259,0.116,0.315,0.233v-0.262h0.722v2.395h-0.722V30.979L60.682,30.979z"/>
		<path fill="#FFFFFF" d="M66.192,29.048c0.171,0.172,0.286,0.431,0.286,0.748v1.414H65.73v-1.414c0-0.172-0.059-0.287-0.144-0.375
			c-0.088-0.086-0.232-0.116-0.377-0.116c-0.146,0-0.259,0.059-0.345,0.146c-0.116,0.087-0.174,0.23-0.174,0.433v1.327h-0.75v-1.414
			c0-0.172-0.059-0.287-0.146-0.375c-0.086-0.086-0.229-0.116-0.372-0.116c-0.145,0-0.261,0.059-0.376,0.146
			c-0.116,0.087-0.144,0.26-0.144,0.49v1.27h-0.723v-2.396h0.723v0.233c0.085-0.089,0.201-0.146,0.346-0.203
			c0.144-0.059,0.259-0.088,0.374-0.088c0.374,0,0.663,0.117,0.865,0.319c0.116-0.117,0.231-0.174,0.376-0.231
			c0.144-0.059,0.316-0.088,0.489-0.088C65.7,28.757,65.99,28.845,66.192,29.048L66.192,29.048z"/>
	</g>
	<path fill="#FFFFFF" d="M45.511,20.077c-0.229-0.231-0.49-0.433-0.75-0.605l-0.95,2.047c0.057,0.029,0.085,0.088,0.143,0.116
		c0.434,0.433,0.634,0.922,0.634,1.499c0,0.605-0.2,1.097-0.634,1.529c-0.403,0.433-0.922,0.634-1.527,0.634
		c-0.115,0-0.26,0-0.376-0.028l-0.95,2.049c0.403,0.114,0.835,0.171,1.296,0.171c1.213,0,2.222-0.433,3.059-1.27
		c0.836-0.835,1.269-1.873,1.269-3.085S46.348,20.913,45.511,20.077L45.511,20.077z"/>
	<path fill="#FFFFFF" d="M63.971,23.624c-0.088,0.375-0.289,0.722-0.577,1.039c-0.404,0.433-0.923,0.634-1.528,0.634
		s-1.097-0.201-1.529-0.634c-0.434-0.433-0.635-0.924-0.635-1.529s0.201-1.096,0.635-1.499c0.433-0.404,0.924-0.636,1.529-0.636
		c0.575,0,1.095,0.202,1.498,0.636c0.23,0.23,0.404,0.489,0.52,0.778h2.251c-0.144-0.895-0.547-1.673-1.213-2.336
		c-0.835-0.838-1.873-1.27-3.086-1.27c-1.21,0-2.248,0.432-3.086,1.27c-0.836,0.836-1.269,1.873-1.269,3.086
		c0,1.211,0.433,2.25,1.269,3.087c0.838,0.834,1.876,1.27,3.086,1.27c1.213,0,2.251-0.436,3.086-1.27
		c0.722-0.723,1.126-1.587,1.241-2.598h-2.191V23.624L63.971,23.624z"/>
	<path fill="#FFFFFF" d="M54.827,19.788l-0.952,2.162c0.087,0.146,0.174,0.291,0.261,0.463c0.201,0.547,0.201,1.097-0.03,1.615
		c-0.23,0.549-0.634,0.922-1.182,1.123c-0.547,0.204-1.096,0.204-1.644-0.027s-0.924-0.635-1.126-1.183
		c-0.201-0.548-0.201-1.096,0.028-1.644c0.233-0.549,0.637-0.924,1.183-1.126c0.174-0.057,0.347-0.115,0.521-0.115l0.95-2.134
		c-0.75-0.144-1.5-0.057-2.277,0.23c-1.097,0.433-1.904,1.184-2.394,2.278c-0.492,1.097-0.521,2.221-0.115,3.316
		c0.431,1.098,1.181,1.904,2.305,2.396c1.097,0.49,2.192,0.518,3.318,0.085c1.097-0.432,1.903-1.181,2.394-2.278
		c0.489-1.096,0.52-2.19,0.087-3.287C55.896,20.883,55.434,20.249,54.827,19.788L54.827,19.788z"/>
	<path fill="#FFFFFF" d="M37.206,27.432h-2.251v-4.211c0-0.605-0.26-1.125-0.693-1.529c-0.461-0.433-0.95-0.605-1.556-0.605
		c-0.663,0-1.213,0.26-1.586,0.605c-0.692,0.606-0.692,1.557-0.692,1.557v4.184h-2.25v-4.211c0-0.605-0.23-1.125-0.662-1.558
		c-0.434-0.433-0.954-0.635-1.558-0.635c-0.606,0-1.125,0.202-1.558,0.635c-0.434,0.433-0.665,0.952-0.665,1.558v4.211h-2.249
		v-4.211c0-1.242,0.434-2.279,1.297-3.144c0.866-0.866,1.903-1.298,3.145-1.298c1.24,0,2.538,0.432,3.403,1.326
		c0.867-0.866,2.106-1.326,3.346-1.326c1.241,0,2.336,0.432,3.203,1.298c0.862,0.864,1.296,1.901,1.296,3.144v4.211H37.206z"/>
	<path fill="#FFFFFF" d="M1.848,5h1.596c1.05,0,1.906,0.227,2.57,0.682C6.681,6.139,7.01,6.714,7.01,7.407
		c0,0.848-0.491,1.557-1.47,2.126c1.517,0.506,2.275,1.385,2.275,2.636c0,0.869-0.391,1.571-1.173,2.103
		c-0.784,0.532-1.831,0.8-3.144,0.8h-1.65V5z M3.209,6.216v2.981c0.756-0.01,1.34-0.156,1.743-0.435
		c0.402-0.281,0.604-0.665,0.604-1.153c0-0.43-0.18-0.769-0.545-1.026C4.646,6.328,4.157,6.197,3.546,6.197
		C3.417,6.197,3.303,6.206,3.209,6.216z M3.209,10.392v3.446h0.108c1.188,0,1.994-0.191,2.428-0.57
		c0.432-0.378,0.649-0.766,0.649-1.161c0-0.521-0.243-0.938-0.727-1.249c-0.487-0.311-1.149-0.466-1.993-0.466H3.209z"/>
	<path fill="#FFFFFF" d="M23.016,12.61h1.368c-0.421,0.863-1.2,1.646-2.345,2.35c-1.142,0.706-2.598,1.057-4.364,1.057
		c-2.387,0-4.26-0.608-5.626-1.828c-1.364-1.218-2.042-2.886-2.042-5.004c0-1.414,0.326-2.745,0.978-3.992
		c0.654-1.25,1.535-2.195,2.646-2.834c1.109-0.637,2.408-0.957,3.892-0.957c2.006,0,3.59,0.596,4.759,1.784
		c1.164,1.195,1.746,2.533,1.746,4.024c0,1.521-0.485,2.833-1.457,3.927c-0.975,1.097-1.996,1.643-3.072,1.643
		c-0.542,0-0.922-0.1-1.137-0.3c-0.216-0.201-0.34-0.524-0.375-0.978c-0.749,0.842-1.52,1.263-2.304,1.263
		c-0.795,0-1.459-0.325-1.987-0.974c-0.531-0.648-0.794-1.473-0.794-2.472c0-0.738,0.191-1.501,0.571-2.291
		c0.38-0.786,0.877-1.403,1.493-1.846c0.615-0.443,1.241-0.664,1.872-0.664c0.947,0,1.715,0.465,2.303,1.397l0.244-1.184h1.374
		l-1.21,5.638c-0.071,0.34-0.106,0.558-0.106,0.651c0,0.14,0.054,0.256,0.159,0.354c0.107,0.096,0.236,0.143,0.386,0.143
		c0.255,0,0.629-0.177,1.125-0.53c0.495-0.356,0.914-0.873,1.26-1.549c0.343-0.676,0.516-1.39,0.516-2.14
		c0-1.367-0.516-2.508-1.549-3.425c-1.035-0.913-2.331-1.37-3.894-1.37c-1.814,0-3.321,0.622-4.521,1.87
		c-1.2,1.246-1.802,2.808-1.802,4.69c0,1.837,0.578,3.272,1.734,4.296c1.153,1.024,2.771,1.54,4.849,1.54
		c1.291,0,2.411-0.232,3.352-0.701C21.997,13.734,22.652,13.204,23.016,12.61z M16.913,5.636c-0.658,0-1.26,0.392-1.8,1.173
		c-0.542,0.782-0.813,1.663-0.813,2.643c0,0.652,0.155,1.181,0.467,1.588c0.311,0.406,0.715,0.606,1.21,0.606
		c0.396,0,0.816-0.177,1.26-0.534c0.447-0.359,0.803-0.842,1.069-1.451c0.263-0.61,0.396-1.217,0.396-1.814
		c0-0.672-0.163-1.21-0.487-1.611C17.888,5.835,17.451,5.636,16.913,5.636z"/>
	<path fill="#FFFFFF" d="M25.975,5.015h1.376v6.19c0,0.917,0.222,1.624,0.66,2.127c0.44,0.502,1.062,0.749,1.869,0.749
		c0.802,0,1.426-0.229,1.869-0.689c0.446-0.463,0.671-1.112,0.671-1.948V5.015h1.374v6.332c0,1.233-0.352,2.221-1.056,2.957
		c-0.703,0.739-1.64,1.106-2.811,1.106c-1.195,0-2.154-0.374-2.872-1.12c-0.721-0.75-1.081-1.854-1.081-3.313V5.015z"/>
	<path fill="#FFFFFF" d="M35.967,4.596l7.445,7.654V5h1.376v10.536l-7.447-7.618v7.153h-1.374V4.596z"/>
	<path fill="#FFFFFF" d="M50.848,4.611l4.756,10.46h-1.444l-1.167-2.575h-4.274l-1.156,2.575h-1.431L50.848,4.611z M50.843,7.756
		l-1.611,3.591h3.239L50.843,7.756z"/>
	<path fill="#FFFFFF" d="M65.422,4.579l2.757,10.492H66.83l-1.668-6.41l-2.87,6.796l-2.878-6.854l-1.691,6.468h-1.339L59.14,4.579
		l3.15,7.506L65.422,4.579z"/>
	<g>
		<path fill="#FFFFFF" d="M10.127,32.73c-3.452,0.657-5.107-1.158-5.107-1.158c-2.614-2.273-0.459-4.929-0.459-4.929
			c1.037-1.336,3.031-2.394,3.031-2.394s-0.517-0.425-1.576-2.275c-1.256-2.194,0.72-3.771,0.72-3.771
			c0.917-0.918,2.569-0.864,2.569-0.864c0.644,0,1.205,0.088,1.678,0.261c0.473,0.175,0.864,0.41,1.169,0.706
			c0.309,0.296,0.531,0.642,0.674,1.035c0.142,0.395,0.213,0.812,0.213,1.25c0,0.455-0.094,0.869-0.283,1.241
			c-0.188,0.372-0.442,0.715-0.755,1.034c-0.317,0.319-0.68,0.522-1.096,0.803c-0.417,0.282-0.779,0.452-1.238,0.74l4.13,4.289
			c0.315-0.469,0.919-1.961,1.078-2.894l1.217,0.401c0,0.923-0.792,2.828-1.296,3.45l2.134,2.255l-0.838,1.018l-2.114-2.114
			C12.282,32.47,10.127,32.73,10.127,32.73z M4.532,30.464 M13.073,29.851L8.465,25.08c-0.692,0.463-1.769,1.046-2.427,1.844
			c0,0-1.637,1.775-0.199,3.411c0,0,0.936,1.237,3.392,1.237C9.23,31.572,11.551,31.658,13.073,29.851z M7.125,20.5
			c0,0.487,0.117,0.949,0.351,1.389c0.235,0.438,0.583,0.892,1.056,1.362l0.258,0.281c0.397-0.219,0.774-0.442,1.131-0.67
			c0.354-0.227,0.665-0.466,0.936-0.718c0.269-0.249,0.48-0.512,0.636-0.785s0.233-0.576,0.233-0.906
			c0-0.562-0.181-1.021-0.545-1.374c-0.364-0.353-0.936-0.529-1.716-0.529c-0.658,0-1.213,0.161-1.664,0.481
			C7.352,19.353,7.125,19.843,7.125,20.5z"/>
	</g>
</g>
</svg>
